<svg width="147" height="147" fill="none" xmlns="http://www.w3.org/2000/svg"><path d="M123.688 128.262H86.731c-5.475 0-10.493-2.282-14.6-5.932L14.187 64.387l31.938-36.5c0 17.793 18.706 36.5 36.5 36.5h4.563c-.457 20.53 7.3 35.587 27.374 41.975 1.369.456 2.282.912 3.65.912 5.475 1.369 9.126 7.3 7.757 12.775l-2.281 8.213Z" stroke="#000" stroke-width="2" stroke-miterlimit="10" stroke-linecap="round" stroke-linejoin="round"/><path d="m5.063 73.512 62.506 62.506c3.65 3.65 9.125 5.931 14.6 5.931h41.519M48.406 78.074a6.844 6.844 0 1 0 0-13.688 6.844 6.844 0 0 0 0 13.688ZM68.938 87.2h20.53M78.063 100.887h25.093M128.25 5.074 94.944 38.38c-7.757 7.757-10.494 18.707-7.757 29.2M46.125 32.45c8.669-2.738 16.425-9.126 20.987-16.882L73.5 5.074" stroke="#000" stroke-width="2" stroke-miterlimit="10" stroke-linecap="round" stroke-linejoin="round"/></svg>