<svg width="60" height="61" fill="none" xmlns="http://www.w3.org/2000/svg"><g clip-path="url('#clip0_18_13')"><path d="M30 .524c-16.57 0-30 13.462-30 30.07s13.43 30.069 30 30.069 30-13.461 30-30.07C60 13.987 46.57.525 30 .525Zm-9.14 45.838h-7.308V22.814h7.308v23.548ZM17.198 19.58a4.248 4.248 0 0 1-4.239-4.248 4.248 4.248 0 0 1 4.239-4.248 4.248 4.248 0 0 1 4.238 4.248 4.248 4.248 0 0 1-4.238 4.248Zm30.994 26.782h-7.29v-11.45c0-2.728-.053-6.241-3.803-6.241-3.802 0-4.378 2.971-4.378 6.048v11.66h-7.29V22.815h7.01v3.217h.088a7.677 7.677 0 0 1 6.907-3.811c7.395 0 8.756 4.877 8.756 11.223v12.92Z" fill="#FDFDFD"/></g><defs><clipPath id="clip0_18_13"><path fill="#fff" d="M0 0h60v60.488H0z"/></clipPath></defs></svg>