<svg width="60" height="60" fill="none" xmlns="http://www.w3.org/2000/svg"><g clip-path="url('#clip0_18_5')"><path d="M60 30.183c0 14.972-10.985 27.385-25.325 29.637V38.913h6.973l1.327-8.65h-8.3V24.65c0-2.367 1.16-4.672 4.875-4.672h3.773v-7.366s-3.425-.585-6.698-.585c-6.835 0-11.3 4.143-11.3 11.64v6.593h-7.598v8.65h7.598v20.908C10.988 57.563 0 45.153 0 30.183c0-16.568 13.432-30 30-30 16.568 0 30 13.43 30 30Z" fill="#FDFDFD"/></g><defs><clipPath id="clip0_18_5"><path fill="#fff" d="M0 0h60v60H0z"/></clipPath></defs></svg>