<svg width="55" height="58" fill="none" xmlns="http://www.w3.org/2000/svg"><g clip-path="url('#clip0_22_85')"><path fill="#000" d="M0 0h55v58H0z"/><path fill="#fff" fill-opacity=".2" d="M0 0h55v58H0z"/><path d="m40.455 15.38-.066-.246a14.073 14.073 0 0 0-6.537-8.53 14.002 14.002 0 0 0-10.636-1.41l-9.674 2.601a14.043 14.043 0 0 0-8.506 6.557 14.114 14.114 0 0 0-1.405 10.667l3.562 13.326a15.991 15.991 0 0 0 5.188 8.157l1.47 1.237.393 1.468a8.033 8.033 0 0 0 3.735 4.876 7.992 7.992 0 0 0 6.078.8l17.408-4.68a8.015 8.015 0 0 0 4.865-3.746 8.056 8.056 0 0 0 .8-6.098l-.333-1.243.74-1.212a16.167 16.167 0 0 0 1.803-12.542l-1.076-4.025a8.052 8.052 0 0 0-2.893-4.315 8.012 8.012 0 0 0-4.92-1.642h.004Zm-.024 30.94L23.02 51a3.996 3.996 0 0 1-3.04-.4 4.016 4.016 0 0 1-1.867-2.44l25.15-6.762a4.03 4.03 0 0 1-.4 3.049 4.013 4.013 0 0 1-2.432 1.871ZM45.475 26.4a12.144 12.144 0 0 1-1.355 9.407l-.875 1.435-27.004 7.261-1.288-1.082a12.006 12.006 0 0 1-3.893-6.124l-1.764-6.6a7.948 7.948 0 0 0 4.148.002l13.542-3.642c.513-.137.95-.474 1.216-.936a2.014 2.014 0 0 0-.734-2.743 1.997 1.997 0 0 0-1.52-.2l-13.54 3.64a3.994 3.994 0 0 1-4.217-1.434 4.02 4.02 0 0 1-.691-1.407 10.082 10.082 0 0 1 1.003-7.62 10.031 10.031 0 0 1 6.077-4.683l9.673-2.6a10.002 10.002 0 0 1 7.598 1.006 10.053 10.053 0 0 1 4.67 6.094l.065.245a8.044 8.044 0 0 0-3.441 3.89 8.073 8.073 0 0 0-.353 5.187l1.556 5.82c.138.515.474.953.934 1.22a1.998 1.998 0 0 0 2.735-.736c.266-.461.338-1.01.2-1.524l-1.556-5.82a4.028 4.028 0 0 1 .4-3.05 4.008 4.008 0 0 1 2.432-1.872 3.996 3.996 0 0 1 3.04.401 4.017 4.017 0 0 1 1.867 2.44l1.075 4.025Z" fill="#F40000"/></g><defs><clipPath id="clip0_22_85"><path fill="#fff" d="M0 0h55v58H0z"/></clipPath></defs></svg>